<mxfile host="app.diagrams.net" modified="2023-11-13T08:47:16.453Z" agent="Mozilla/5.0 (Macintosh; Intel Mac OS X 10_15_7) AppleWebKit/537.36 (KHTML, like Gecko) Chrome/115.0.0.0 Safari/537.36" version="21.8.0" etag="1cH7iW5z_oeTv9QJij71" type="github">
  <diagram name="Page-1" id="7qe2EuQxXNlHt_XSJrkN">
    <mxGraphModel>
      <root>
        <mxCell id="0" />
        <mxCell id="1" parent="0" />
      </root>
    </mxGraphModel>
  </diagram>
</mxfile>
